<?xml version="1.0" encoding="UTF-8"?><svg id="Layer_2" xmlns="http://www.w3.org/2000/svg" viewBox="0 0 2293.58 347.92"><g id="Layer_1-2"><path d="M150,173.96h114c19.87,0,36,16.13,36,36v114h-150v-150h0Z" transform="translate(473.96 23.96) rotate(90)" fill="#246e8f"/><rect x="191.4" y="234.13" width="67.2" height="8.06" fill="#e6f7ff"/><rect x="191.4" y="255.73" width="67.2" height="8.06" fill="#e6f7ff"/><path d="M36,23.96h114v150H0V59.96C0,40.09,16.13,23.96,36,23.96Z" fill="#88daff"/><polygon points="108.6 94.93 79.03 94.93 79.03 65.36 70.97 65.36 70.97 94.93 41.4 94.93 41.4 102.99 70.97 102.99 70.97 132.56 79.03 132.56 79.03 102.99 108.6 102.99 108.6 94.93" fill="#e6f7ff"/><path d="M0,173.96h150v150H36c-19.87,0-36-16.13-36-36v-114h0Z" fill="#88daff"/><polygon points="95.91 222.35 75 243.26 54.09 222.35 48.39 228.05 69.3 248.96 48.39 269.87 54.09 275.57 75 254.66 95.91 275.57 101.61 269.87 80.7 248.96 101.61 228.05 95.91 222.35" fill="#e6f7ff"/><path d="M150,23.96h114c19.87,0,36,16.13,36,36v114h-150V23.96h0Z" fill="#88daff"/><rect x="191.4" y="94.93" width="67.2" height="8.06" fill="#e6f7ff"/><polygon points="300 173.36 150.6 173.36 150.6 23.96 149.4 23.96 149.4 173.36 0 173.36 0 174.56 149.4 174.56 149.4 323.96 150.6 323.96 150.6 174.56 300 174.56 300 173.36" fill="#fff"/><path d="M438.53,85h1.98c18.45,0,29.21,11.86,32.29,35.58v8.57l-.66,4.61h.66c21.19-12.74,39.64-19.11,55.35-19.11h9.23c31.74,0,53.04,13.62,63.92,40.85,2.64,8.9,3.95,17.68,3.95,26.36v3.3c0,30.64-13.84,51.95-41.51,63.92-5.6,2.19-10.43,3.3-14.5,3.3-5.6,0-9.34-4.18-11.2-12.52,0-8.01,4.39-12.63,13.18-13.84,11.09-4.28,18.78-10.65,23.06-19.11,4.39-9,6.59-16.91,6.59-23.72v-1.32c-3.4-27.23-17.02-40.85-40.85-40.85h-2.64l-23.06,1.98v1.32c21.52,8.68,32.29,24.05,32.29,46.13s-10.54,38.66-31.63,51.4c-6.59,2.2-11.86,3.3-15.81,3.3h-3.95c-8.02,0-16.14-3.07-24.38-9.23h-.66c-7.91,6.15-14.72,9.23-20.43,9.23-9.88,0-19.55-8.34-28.99-25.04h-.66c-5.82,10.98-12.19,16.47-19.11,16.47h-.66c-4.72,0-7.36-3.95-7.91-11.86,0-12.08,14.28-33.17,42.83-63.26,8.78-6.92,13.18-11.09,13.18-12.52,2.64-8.89,3.95-15.48,3.95-19.77v-3.95c-3.19-12.3-8.9-18.45-17.13-18.45h-3.29c-8.46,0-15.05,5.49-19.77,16.47v1.32c1.32,3.08,3.3,4.61,5.93,4.61,1.65,0,4.06-4.17,7.25-12.52l1.98-.66c7.03,0,11.86,3.08,14.5,9.22,0,9.01-5.05,17.57-15.16,25.7-5.16,2.2-8.68,3.3-10.54,3.3h-3.95c-12.52,0-19.77-7.91-21.74-23.72v-1.32c0-7.36,3.95-16.8,11.86-28.33,10.98-10.54,23.06-15.81,36.24-15.81ZM433.25,202.95c5.71,0,11.42,6.15,17.13,18.45l3.95,1.32c3.95-.77,5.93-3.4,5.93-7.91v-11.2c0-8.89,4.39-15.26,13.18-19.11h2.64c3.62,0,6.7,2.86,9.22,8.57l-.66,4.61v8.56c.88,11.43,3.73,17.13,8.57,17.13l.66.66h.66c14.5,0,23.94-6.59,28.33-19.77.88-1.98,1.32-4.83,1.32-8.57v-5.27c0-14.5-7.91-23.72-23.72-27.67l-11.2-.66c-16.91,0-28.56,4.61-34.92,13.84-11.64,11.2-18.67,20.21-21.09,27.02Z" fill="#246e8f"/><path d="M626.98,124.54c14.72,0,32.73,2.86,54.03,8.57l.66,1.98c-3.52,15.81-9.23,23.72-17.13,23.72-20.21,9.23-30.31,21.53-30.31,36.9v1.98c0,10.54,4.39,17.57,13.18,21.08l5.93.66c7.36,0,12.63-3.3,15.81-9.89,4.06-1.75,7.36-2.64,9.88-2.64,5.6,0,9.11,3.74,10.54,11.2,0,9.34-6.81,17.68-20.43,25.04-5.38,1.76-9.99,2.64-13.84,2.64h-1.32c-18.78,0-33.06-8.57-42.83-25.7-2.2-6.7-3.3-13.07-3.3-19.11,0-17.46,9.88-33.49,29.65-48.1v-.66l-4.61-.66h-1.32l-17.79,1.32c-1.76-.55-2.64-2.52-2.64-5.93v-7.25c0-10.11,4.17-15.16,12.52-15.16h3.29Z" fill="#246e8f"/><path d="M796.32,100.82c27.02,0,48.32,12.08,63.92,36.24,4.39,10,6.59,19.88,6.59,29.65,0,20.98-9.66,42.28-28.99,63.92-12.3,9.67-24.38,14.5-36.24,14.5-22.73,0-38.11-14.06-46.13-42.17l-1.32-15.16,1.32-11.86h-31.63c-6.15,16.36-9.22,31.96-9.22,46.78,0,28,11.64,49.53,34.92,64.57,10.21,5.27,19,7.91,26.36,7.91,30.2,0,54.36-15.59,72.48-46.78l7.91-16.47c3.62-3.51,7.14-5.27,10.54-5.27h.66c6.59.77,9.88,3.84,9.88,9.22,0,35.14-20.87,61.72-62.6,79.73-14.94,5.27-28.33,7.91-40.2,7.91-40.52,0-67.1-20.65-79.73-61.94-3.08-12.19-4.61-23.83-4.61-34.92v-6.59c0-34.92,13.18-65.89,39.54-92.91,19.66-17.57,41.84-26.36,66.55-26.36ZM744.27,150.89l1.98.66c54.91,0,82.37,1.32,82.37,3.95,3.07,2.53,4.61,5.6,4.61,9.23v2.64c-1.1,7.91-4.39,11.86-9.88,11.86-23.72,0-35.58,1.98-35.58,5.93-1.65.99-3.19,2.75-4.61,5.27v9.88c0,13.18,5.49,19.77,16.47,19.77,13.29,0,25.81-11.42,37.56-34.27,2.19-6.7,3.29-11.53,3.29-14.5v-6.59c0-16.36-9.23-27.57-27.67-33.61l-12.52-1.32h-5.93c-17.35,0-34.05,7.03-50.08,21.08Z" fill="#246e8f"/><path d="M806.87,0h3.3c22.73,0,38.55,9.22,47.44,27.67,1.76,6.59,2.64,12.3,2.64,17.13v2.64c-1.21,19.77-5.16,29.65-11.86,29.65l-2.64.66h-.66c-3.51,0-7.47-1.98-11.86-5.93l1.98-17.13v-3.3c0-16.25-8.78-24.38-26.36-24.38-8.57,0-18.23,3.08-28.99,9.22-6.81,5.6-11.86,16.37-15.16,32.29-3.4,8.35-8.46,12.52-15.16,12.52h-1.32c-5.71,0-8.57-3.51-8.57-10.54,0-31.96,14.28-54.14,42.83-66.55,9.55-2.64,17.68-3.95,24.38-3.95Z" fill="#246e8f"/><path d="M916.25,85h1.98c18.45,0,29.21,11.86,32.29,35.58v8.57l-.66,4.61h.66c21.19-12.74,39.64-19.11,55.35-19.11h9.23c31.74,0,53.04,13.62,63.92,40.85,2.64,8.9,3.95,17.68,3.95,26.36v3.3c0,30.64-13.84,51.95-41.51,63.92-5.6,2.19-10.43,3.3-14.5,3.3-5.6,0-9.34-4.18-11.2-12.52,0-8.01,4.39-12.63,13.18-13.84,11.09-4.28,18.78-10.65,23.06-19.11,4.39-9,6.59-16.91,6.59-23.72v-1.32c-3.4-27.23-17.02-40.85-40.85-40.85h-2.64l-23.06,1.98v1.32c21.52,8.68,32.29,24.05,32.29,46.13s-10.54,38.66-31.63,51.4c-6.59,2.2-11.86,3.3-15.81,3.3h-3.95c-8.02,0-16.14-3.07-24.38-9.23h-.66c-7.91,6.15-14.72,9.23-20.43,9.23-9.88,0-19.55-8.34-28.99-25.04h-.66c-5.82,10.98-12.19,16.47-19.11,16.47h-.66c-4.72,0-7.36-3.95-7.91-11.86,0-12.08,14.28-33.17,42.83-63.26,8.78-6.92,13.18-11.09,13.18-12.52,2.64-8.89,3.95-15.48,3.95-19.77v-3.95c-3.19-12.3-8.9-18.45-17.13-18.45h-3.29c-8.46,0-15.05,5.49-19.77,16.47v1.32c1.32,3.08,3.3,4.61,5.93,4.61,1.65,0,4.06-4.17,7.25-12.52l1.98-.66c7.03,0,11.86,3.08,14.5,9.22,0,9.01-5.05,17.57-15.16,25.7-5.16,2.2-8.68,3.3-10.54,3.3h-3.95c-12.52,0-19.77-7.91-21.74-23.72v-1.32c0-7.36,3.95-16.8,11.86-28.33,10.98-10.54,23.06-15.81,36.24-15.81ZM910.98,202.95c5.71,0,11.42,6.15,17.13,18.45l3.95,1.32c3.95-.77,5.93-3.4,5.93-7.91v-11.2c0-8.89,4.39-15.26,13.18-19.11h2.64c3.62,0,6.7,2.86,9.22,8.57l-.66,4.61v8.56c.88,11.43,3.73,17.13,8.57,17.13l.66.66h.66c14.5,0,23.94-6.59,28.33-19.77.88-1.98,1.32-4.83,1.32-8.57v-5.27c0-14.5-7.91-23.72-23.72-27.67l-11.2-.66c-16.91,0-28.56,4.61-34.92,13.84-11.64,11.2-18.67,20.21-21.09,27.02Z" fill="#246e8f"/><path d="M1072.25,218.76c4.39,0,7.47,7.25,9.23,21.74h-.66c-25.48,7.69-38.22,17.35-38.22,28.99,1.43,9.66,6.04,14.5,13.84,14.5h3.3c8.79,0,15.38-2.2,19.77-6.59l5.27-1.32h3.95c6.15,1.43,9.22,4.94,9.22,10.54,0,6.92-6.37,13.95-19.11,21.09-6.26,2.64-12.85,3.95-19.77,3.95h-.66c-19.11,0-33.17-7.03-42.17-21.09-2.64-6.26-3.95-12.19-3.95-17.79,0-23.83,17.57-41.84,52.71-54.03h7.25Z" fill="#246e8f"/><path d="M1221.33,84.34c16.36,0,27.56,5.93,33.61,17.79l1.98,10.54v4.61c0,16.69-7.03,27.02-21.09,30.97-11.42-1.43-17.13-6.04-17.13-13.84v-.66c0-3.95,2.41-6.59,7.25-7.91,2.64-2.85,3.95-5.49,3.95-7.91,0-4.39-3.73-7.25-11.2-8.57-8.24,0-13.95,4.17-17.13,12.52l-.66,7.25v2.64c0,5.71,11.42,12.52,34.26,20.43,14.93,8.79,22.4,22.19,22.4,40.2v1.32c0,25.92-12.96,42.83-38.88,50.74l-5.27.66c-13.84,0-25.92-8.34-36.24-25.04,0,7.25-6.15,14.28-18.45,21.08-7.58,3.08-15.48,4.61-23.72,4.61-20.21,0-34.05-9.66-41.51-28.99-5.27-10.1-7.91-21.08-7.91-32.95v-5.27c0-28.33,10.98-47.88,32.95-58.64l18.45-5.27h3.95c10.1,0,16.03,4.39,17.79,13.18v1.32c0,7.25-7.91,12.74-23.72,16.47-12.3,10.54-18.45,23.94-18.45,40.19,0,12.63,3.73,22.07,11.2,28.33,2.64,2.2,6.15,3.3,10.54,3.3h.66c8.78,0,13.18-6.37,13.18-19.11,3.73-14.06,10.32-21.09,19.77-21.09h2.64c8.67,0,14.6,4.61,17.79,13.84,4.61,15.81,12.3,23.72,23.06,23.72h.66c8.46,0,13.95-6.15,16.47-18.45v-.66c0-14.06-13.18-23.94-39.54-29.65-11.42-5.27-17.13-14.27-17.13-27.02v-.66c0-26.91,9.44-44.26,28.33-52.06l17.13-1.98Z" fill="#246e8f"/><path d="M1237.64,216.13c3.95.88,5.93,1.76,5.93,2.64-6.26,52.93-12.63,91.37-19.11,115.31,0,4.83-28.33,9.44-85,13.84-21.09,0-34.48-7.25-40.2-21.75l-2.64-11.86c0-23.5,8.79-39.32,26.36-47.44l5.27-1.32c7.03,0,10.54,2.86,10.54,8.57v1.98c0,3.19-3.07,8.01-9.23,14.5-4.17,5.93-6.59,11.86-7.25,17.79,0,9.22,8.13,13.84,24.38,13.84,9.66,0,26.8-2.42,51.4-7.25,10.54-54.58,16.91-84.89,19.11-90.93,5.49-5.27,12.3-7.91,20.43-7.91Z" fill="#246e8f"/><path d="M1351.8,104.77h2.64c23.72,0,39.75,9.67,48.1,28.99l1.32,5.93c-2.31,6.15-6.92,9.22-13.84,9.22-6.37,0-10.98-3.73-13.84-11.2-4.39-6.59-12.08-9.89-23.06-9.89-15.71,0-32.18,6.81-49.42,20.43-9.66,10.21-14.5,20.54-14.5,30.97v3.95c0,16.91,9,29.87,27.02,38.88,4.06,1.32,7.8,1.98,11.2,1.98h1.98c12.63,0,24.27-6.59,34.92-19.77,2.63-6.92,3.95-11.97,3.95-15.16,0-9.66-6.59-15.37-19.77-17.13-9.23.88-14.06,3.3-14.5,7.25l5.27,11.86v1.32c0,7.91-5.49,11.86-16.47,11.86h-2.64c-10.11-6.81-15.16-15.16-15.16-25.04v-1.32c0-16.58,12.74-27.56,38.22-32.95l8.57-.66c20.54,0,34.59,10.76,42.17,32.29l1.98,12.52c0,22.95-14.72,40.52-44.15,52.71-6.37,1.76-14.94,3.08-25.7,3.95-28.66,0-49.31-13.18-61.94-39.54-1.76-7.25-2.86-13.84-3.3-19.77,0-22.07,8.78-41.4,26.36-57.99,20.1-15.81,41.62-23.72,64.58-23.72Z" fill="#246e8f"/><path d="M1509.12,100.82c27.02,0,48.32,12.08,63.92,36.24,4.39,10,6.59,19.88,6.59,29.65,0,20.98-9.66,42.28-28.99,63.92-12.3,9.67-24.38,14.5-36.24,14.5-22.73,0-38.11-14.06-46.13-42.17l-1.32-15.16,1.32-11.86h-31.63c-6.15,16.36-9.22,31.96-9.22,46.78,0,28,11.64,49.53,34.92,64.57,10.21,5.27,19,7.91,26.36,7.91,30.2,0,54.36-15.59,72.48-46.78l7.91-16.47c3.62-3.51,7.14-5.27,10.54-5.27h.66c6.59.77,9.88,3.84,9.88,9.22,0,35.14-20.86,61.72-62.6,79.73-14.94,5.27-28.33,7.91-40.19,7.91-40.53,0-67.1-20.65-79.73-61.94-3.08-12.19-4.61-23.83-4.61-34.92v-6.59c0-34.92,13.18-65.89,39.54-92.91,19.66-17.57,41.84-26.36,66.55-26.36ZM1457.07,150.89l1.98.66c54.91,0,82.37,1.32,82.37,3.95,3.07,2.53,4.61,5.6,4.61,9.23v2.64c-1.1,7.91-4.39,11.86-9.89,11.86-23.72,0-35.58,1.98-35.58,5.93-1.65.99-3.19,2.75-4.61,5.27v9.88c0,13.18,5.49,19.77,16.47,19.77,13.29,0,25.81-11.42,37.56-34.27,2.19-6.7,3.29-11.53,3.29-14.5v-6.59c0-16.36-9.22-27.57-27.67-33.61l-12.52-1.32h-5.93c-17.35,0-34.05,7.03-50.08,21.08Z" fill="#246e8f"/><path d="M1527.24,8.57h3.95c12.3,0,23.06,7.03,32.29,21.09,7.25-3.95,13.4-5.93,18.45-5.93,15.59,0,28.11,7.47,37.56,22.4,1.76,4.94,2.64,8.89,2.64,11.86,0,8.02-4.61,15.92-13.84,23.72l-15.16,5.27c-5.71,0-9.22-4.17-10.54-12.52,0-3.3,2.85-6.15,8.57-8.57,6.15-4.72,9.23-9.11,9.23-13.18v-.66c-1.76-6.59-4.83-9.89-9.23-9.89h-3.95c-4.72,0-9.33,2.86-13.84,8.57,3.95,12.08,5.93,24.16,5.93,36.24v9.88c0,14.17-1.98,28-5.93,41.51l-9.89,1.98c-4.39,0-7.68-2.86-9.88-8.57l1.98-30.31v-11.2l-.66-21.09-.66-.66c-8.24,5.27-15.92,7.91-23.06,7.91-14.06,0-24.16-9.23-30.31-27.67l-.66-6.59c0-16.03,7.03-27.02,21.09-32.95l5.93-.66ZM1522.63,48.76c1.65,6.59,4.5,9.88,8.56,9.88,2.86,0,9.01-6.15,18.45-18.45-1.43-7.03-4.5-10.54-9.23-10.54h-3.3c-6.15,0-10.98,6.37-14.49,19.11Z" fill="#246e8f"/><path d="M2117.24,15.05h2.81c8.76,0,16.42,5.01,22.99,15.01,5.16-2.81,9.54-4.22,13.14-4.22,11.1,0,20.02,5.32,26.74,15.95,1.25,3.52,1.88,6.33,1.88,8.44,0,5.71-3.28,11.34-9.85,16.89l-10.79,3.75c-4.07,0-6.57-2.97-7.51-8.91,0-2.35,2.03-4.38,6.1-6.1,4.38-3.36,6.57-6.49,6.57-9.38v-.47c-1.25-4.69-3.44-7.04-6.57-7.04h-2.81c-3.36,0-6.65,2.03-9.85,6.1,2.82,8.6,4.22,17.2,4.22,25.8v7.04c0,10.09-1.41,19.94-4.22,29.56l-7.04,1.41c-3.13,0-5.47-2.03-7.04-6.1l1.41-21.58v-7.98l-.47-15.01-.47-.47c-5.86,3.75-11.34,5.63-16.42,5.63-10.01,0-17.2-6.57-21.58-19.7l-.47-4.69c0-11.41,5.01-19.24,15.01-23.46l4.22-.47ZM2113.95,43.67c1.17,4.69,3.21,7.04,6.1,7.04,2.04,0,6.41-4.38,13.14-13.14-1.02-5-3.21-7.51-6.57-7.51h-2.35c-4.38,0-7.82,4.54-10.32,13.61Z" fill="#246e8f"/><path d="M2139.05,142.57c3.82-1.65,7.95-2.37,12.17-2.5l-.41-13.16v-7.98l1.41-21.58c-1.57-4.07-3.91-6.1-7.04-6.1l-7.04,1.41c-2.82,9.62-1.25,1.24-4.22,29.56v7.04c2.97,18.8,4.1,9.62,5.05,14.63,1.21-.58-1.18-.78.08-1.32Z" fill="#246e8f"/><path d="M1675.17,104.77h2.64c23.72,0,39.76,9.67,48.1,28.99l1.32,5.93c-2.31,6.15-6.92,9.22-13.84,9.22-6.37,0-10.98-3.73-13.84-11.2-4.39-6.59-12.08-9.89-23.06-9.89-15.7,0-32.18,6.81-49.42,20.43-9.67,10.21-14.5,20.54-14.5,30.97v3.95c0,16.91,9,29.87,27.02,38.88,4.06,1.32,7.8,1.98,11.2,1.98h1.98c12.63,0,24.27-6.59,34.92-19.77,2.64-6.92,3.95-11.97,3.95-15.16,0-9.66-6.59-15.37-19.77-17.13-9.22.88-14.06,3.3-14.5,7.25l5.27,11.86v1.32c0,7.91-5.49,11.86-16.48,11.86h-2.63c-10.11-6.81-15.16-15.16-15.16-25.04v-1.32c0-16.58,12.74-27.56,38.22-32.95l8.56-.66c20.54,0,34.59,10.76,42.17,32.29l1.98,12.52c0,22.95-14.72,40.52-44.15,52.71-6.37,1.76-14.93,3.08-25.7,3.95-28.66,0-49.31-13.18-61.94-39.54-1.76-7.25-2.86-13.84-3.3-19.77,0-22.07,8.78-41.4,26.36-57.99,20.1-15.81,41.62-23.72,64.57-23.72Z" fill="#246e8f"/><path d="M1811.73,36.9h2.64c36.68,0,63.92,18.23,81.71,54.69,6.15,15.38,9.23,30.97,9.23,46.79,0,43.27-15.81,75.12-47.44,95.54-14.06,7.91-29.65,11.86-46.78,11.86-39.21,0-66.22-16.91-81.05-50.74-2.2-7.47-3.3-14.27-3.3-20.43v-1.32c0-15.81,6.37-32.07,19.11-48.76,15.26-13.18,31.3-19.77,48.1-19.77,22.62,0,38,12.3,46.13,36.9l.66,7.25v2.64c-1.21,10.11-4.72,15.16-10.54,15.16h-1.98c-4.39,0-8.13-5.71-11.2-17.13-8.02-11.86-17.24-17.79-27.67-17.79h-1.32c-11.64,0-20.65,6.59-27.02,19.77-2.2,8.79-3.3,16.26-3.3,22.4,0,21.75,14.06,35.36,42.17,40.85h7.25c31.63,0,53.59-18.01,65.89-54.03l3.95-23.72c0-23.83-7.69-43.16-23.06-57.99-10.54-8.79-22.84-13.18-36.9-13.18h-1.98c-26.91,0-51.51,12.52-73.8,37.56l-6.59,1.32c-5.05,0-8.35-3.95-9.89-11.86v-.66c0-12.85,14.5-28,43.49-45.46,15.7-6.59,30.2-9.89,43.49-9.89Z" fill="#246e8f"/><path d="M1945.17,123.22c16.69,0,29.43,10.11,38.22,30.31,1.76,5.16,2.64,10.43,2.64,15.82v3.95c0,22.73-10.32,42.72-30.97,59.96-13.29,8.35-23.39,12.52-30.31,12.52-11.42-2.31-17.13-6.7-17.13-13.18v-4.61c1.32-7.91,4.83-11.86,10.54-11.86l4.61.66c17.13,0,29.43-8.78,36.9-26.36,2.2-5.6,3.3-11.75,3.3-18.45,0-12.74-5.93-20.2-17.79-22.4h-1.98c-9.67,0-14.5,6.15-14.5,18.45-3.85,5.71-7.36,8.57-10.54,8.57h-1.32c-6.15,0-9.22-5.27-9.22-15.81,0-16.58,10.54-28.88,31.63-36.9l5.93-.66Z" fill="#246e8f"/><path d="M2080.91,104.77h2.64c23.72,0,39.75,9.67,48.1,28.99l1.32,5.93c-2.31,6.15-6.92,9.22-13.84,9.22-6.37,0-10.98-3.73-13.84-11.2-4.39-6.59-12.08-9.89-23.06-9.89-15.71,0-32.18,6.81-49.42,20.43-9.67,10.21-14.5,20.54-14.5,30.97v3.95c0,16.91,9,29.87,27.02,38.88,4.06,1.32,7.8,1.98,11.2,1.98h1.98c12.63,0,24.27-6.59,34.92-19.77,2.64-6.92,3.95-11.97,3.95-15.16,0-9.66-6.59-15.37-19.77-17.13-9.22.88-14.06,3.3-14.5,7.25l5.27,11.86v1.32c0,7.91-5.49,11.86-16.47,11.86h-2.64c-10.11-6.81-15.16-15.16-15.16-25.04v-1.32c0-16.58,12.74-27.56,38.22-32.95l8.57-.66c20.53,0,34.59,10.76,42.17,32.29l1.98,12.52c0,22.95-14.72,40.52-44.15,52.71-6.37,1.76-14.94,3.08-25.7,3.95-28.66,0-49.31-13.18-61.94-39.54-1.76-7.25-2.86-13.84-3.3-19.77,0-22.07,8.78-41.4,26.36-57.99,20.1-15.81,41.62-23.72,64.58-23.72Z" fill="#246e8f"/><path d="M2222.41,12.52c9.66,1.76,14.5,5.71,14.5,11.86v1.32c0,6.26-5.27,17.9-15.81,34.92l-29.65,46.78h.66c9.44-2.64,17.57-3.95,24.38-3.95h7.91c34.04,0,56.67,19.11,67.87,57.33l1.32,13.84v.66c0,28.99-16.91,51.18-50.74,66.55-11.2,2.64-21.74,3.95-31.63,3.95-34.71,0-59.3-16.91-73.8-50.74-2.64-7.58-4.39-17.68-5.27-30.31,0-23.28,11.64-49.64,34.92-79.07l36.24-51.4,9.88-19.11,9.23-2.64ZM2161.79,166.05v7.25c0,16.91,11.2,30.09,33.61,39.54,5.93,1.76,11.86,2.64,17.79,2.64h5.93c11.2,0,23.94-6.59,38.22-19.77,4.83-7.69,7.25-14.93,7.25-21.75,0-18.78-7.69-31.52-23.06-38.22-3.29-1.76-10.11-3.08-20.43-3.95-22.4,0-40.85,8.79-55.35,26.36-2.64,3.3-3.95,5.93-3.95,7.91Z" fill="#246e8f"/></g></svg>