<?xml version="1.0" encoding="UTF-8"?><svg id="Layer_2" xmlns="http://www.w3.org/2000/svg" viewBox="0 0 913.73 167.04"><g id="Layer_1-2"><path d="M23.09,40.81h.95c8.86,0,14.02,5.69,15.5,17.08v4.11l-.32,2.21h.32c10.18-6.12,19.03-9.17,26.57-9.17h4.43c15.24,0,25.47,6.54,30.69,19.61,1.27,4.27,1.9,8.49,1.9,12.65v1.58c0,14.71-6.64,24.94-19.93,30.69-2.69,1.05-5.01,1.58-6.96,1.58-2.69,0-4.48-2-5.38-6.01,0-3.85,2.11-6.06,6.33-6.64,5.33-2.06,9.02-5.11,11.07-9.18,2.11-4.32,3.16-8.12,3.16-11.39v-.63c-1.63-13.08-8.17-19.61-19.61-19.61h-1.27l-11.07.95v.63c10.33,4.17,15.5,11.55,15.5,22.15s-5.06,18.56-15.19,24.68c-3.16,1.06-5.69,1.58-7.59,1.58h-1.9c-3.85,0-7.75-1.48-11.71-4.43h-.32c-3.8,2.95-7.07,4.43-9.81,4.43-4.75,0-9.39-4.01-13.92-12.02h-.32c-2.8,5.27-5.85,7.91-9.17,7.91h-.32c-2.27,0-3.53-1.9-3.8-5.69,0-5.8,6.85-15.92,20.56-30.37,4.22-3.32,6.33-5.33,6.33-6.01,1.27-4.27,1.9-7.43,1.9-9.49v-1.9c-1.53-5.9-4.27-8.86-8.23-8.86h-1.58c-4.06,0-7.22,2.64-9.49,7.91v.63c.63,1.48,1.58,2.21,2.85,2.21.79,0,1.95-2,3.48-6.01l.95-.32c3.37,0,5.69,1.48,6.96,4.43,0,4.32-2.43,8.44-7.28,12.34-2.48,1.06-4.17,1.58-5.06,1.58h-1.9c-6.01,0-9.49-3.8-10.44-11.39v-.63c0-3.53,1.9-8.07,5.69-13.6,5.27-5.06,11.07-7.59,17.4-7.59ZM20.56,97.44c2.74,0,5.48,2.95,8.23,8.86l1.9.63c1.9-.37,2.85-1.63,2.85-3.8v-5.38c0-4.27,2.11-7.33,6.33-9.17h1.27c1.74,0,3.22,1.37,4.43,4.11l-.32,2.21v4.11c.42,5.49,1.79,8.23,4.11,8.23l.32.32h.32c6.96,0,11.49-3.16,13.6-9.49.42-.95.63-2.32.63-4.11v-2.53c0-6.96-3.8-11.39-11.39-13.29l-5.38-.32c-8.12,0-13.71,2.21-16.77,6.64-5.59,5.38-8.96,9.7-10.12,12.97Z" fill="#246e8f"/><path d="M113.57,59.79c7.06,0,15.71,1.37,25.94,4.11l.32.95c-1.69,7.59-4.43,11.39-8.23,11.39-9.7,4.43-14.55,10.33-14.55,17.72v.95c0,5.06,2.11,8.44,6.33,10.12l2.85.32c3.53,0,6.06-1.58,7.59-4.75,1.95-.84,3.53-1.27,4.75-1.27,2.69,0,4.38,1.79,5.06,5.38,0,4.48-3.27,8.49-9.81,12.02-2.58.84-4.8,1.27-6.64,1.27h-.63c-9.02,0-15.87-4.11-20.56-12.34-1.06-3.22-1.58-6.27-1.58-9.17,0-8.38,4.75-16.08,14.24-23.09v-.32l-2.21-.32h-.63l-8.54.63c-.84-.26-1.27-1.21-1.27-2.85v-3.48c0-4.85,2-7.28,6.01-7.28h1.58Z" fill="#246e8f"/><path d="M194.88,48.4c12.97,0,23.2,5.8,30.69,17.4,2.11,4.8,3.16,9.54,3.16,14.24,0,10.07-4.64,20.3-13.92,30.69-5.91,4.64-11.71,6.96-17.4,6.96-10.91,0-18.3-6.75-22.15-20.25l-.63-7.28.63-5.69h-15.19c-2.95,7.86-4.43,15.34-4.43,22.46,0,13.45,5.59,23.78,16.77,31,4.9,2.53,9.12,3.8,12.65,3.8,14.5,0,26.1-7.49,34.8-22.46l3.8-7.91c1.74-1.69,3.43-2.53,5.06-2.53h.32c3.16.37,4.75,1.85,4.75,4.43,0,16.87-10.02,29.63-30.05,38.28-7.17,2.53-13.6,3.8-19.3,3.8-19.46,0-32.22-9.91-38.28-29.74-1.48-5.85-2.21-11.44-2.21-16.77v-3.16c0-16.77,6.33-31.64,18.98-44.61,9.44-8.44,20.09-12.65,31.95-12.65ZM169.89,72.45l.95.32c26.36,0,39.55.63,39.55,1.9,1.48,1.21,2.21,2.69,2.21,4.43v1.27c-.53,3.8-2.11,5.69-4.75,5.69-11.39,0-17.08.95-17.08,2.85-.79.47-1.53,1.32-2.21,2.53v4.75c0,6.33,2.64,9.49,7.91,9.49,6.38,0,12.39-5.48,18.03-16.45,1.05-3.21,1.58-5.54,1.58-6.96v-3.16c0-7.86-4.43-13.23-13.29-16.13l-6.01-.63h-2.85c-8.33,0-16.35,3.38-24.04,10.12Z" fill="#246e8f"/><path d="M199.94,0h1.58c10.91,0,18.51,4.43,22.78,13.29.84,3.16,1.27,5.91,1.27,8.23v1.27c-.58,9.49-2.48,14.24-5.69,14.24l-1.27.32h-.32c-1.69,0-3.58-.95-5.69-2.85l.95-8.22v-1.58c0-7.8-4.22-11.71-12.65-11.71-4.11,0-8.75,1.48-13.92,4.43-3.27,2.69-5.69,7.86-7.28,15.5-1.63,4.01-4.06,6.01-7.28,6.01h-.63c-2.74,0-4.11-1.69-4.11-5.06,0-15.34,6.85-25.99,20.56-31.95,4.59-1.27,8.49-1.9,11.71-1.9Z" fill="#246e8f"/><path d="M252.46,40.81h.95c8.86,0,14.02,5.69,15.5,17.08v4.11l-.32,2.21h.32c10.18-6.12,19.03-9.17,26.57-9.17h4.43c15.24,0,25.47,6.54,30.69,19.61,1.27,4.27,1.9,8.49,1.9,12.65v1.58c0,14.71-6.64,24.94-19.93,30.69-2.69,1.05-5.01,1.58-6.96,1.58-2.69,0-4.48-2-5.38-6.01,0-3.85,2.11-6.06,6.33-6.64,5.33-2.06,9.02-5.11,11.07-9.18,2.11-4.32,3.16-8.12,3.16-11.39v-.63c-1.63-13.08-8.17-19.61-19.61-19.61h-1.27l-11.07.95v.63c10.33,4.17,15.5,11.55,15.5,22.15s-5.06,18.56-15.19,24.68c-3.16,1.06-5.69,1.58-7.59,1.58h-1.9c-3.85,0-7.75-1.48-11.71-4.43h-.32c-3.8,2.95-7.07,4.43-9.81,4.43-4.75,0-9.39-4.01-13.92-12.02h-.32c-2.8,5.27-5.85,7.91-9.17,7.91h-.32c-2.27,0-3.53-1.9-3.8-5.69,0-5.8,6.85-15.92,20.56-30.37,4.22-3.32,6.33-5.33,6.33-6.01,1.27-4.27,1.9-7.43,1.9-9.49v-1.9c-1.53-5.9-4.27-8.86-8.23-8.86h-1.58c-4.06,0-7.22,2.64-9.49,7.91v.63c.63,1.48,1.58,2.21,2.85,2.21.79,0,1.95-2,3.48-6.01l.95-.32c3.37,0,5.69,1.48,6.96,4.43,0,4.32-2.43,8.44-7.28,12.34-2.48,1.06-4.17,1.58-5.06,1.58h-1.9c-6.01,0-9.49-3.8-10.44-11.39v-.63c0-3.53,1.9-8.07,5.69-13.6,5.27-5.06,11.07-7.59,17.4-7.59ZM249.93,97.44c2.74,0,5.48,2.95,8.23,8.86l1.9.63c1.9-.37,2.85-1.63,2.85-3.8v-5.38c0-4.27,2.11-7.33,6.33-9.17h1.27c1.74,0,3.22,1.37,4.43,4.11l-.32,2.21v4.11c.42,5.49,1.79,8.23,4.11,8.23l.32.32h.32c6.96,0,11.49-3.16,13.6-9.49.42-.95.63-2.32.63-4.11v-2.53c0-6.96-3.8-11.39-11.39-13.29l-5.38-.32c-8.12,0-13.71,2.21-16.77,6.64-5.59,5.38-8.96,9.7-10.12,12.97Z" fill="#246e8f"/><path d="M327.36,105.03c2.11,0,3.59,3.48,4.43,10.44h-.32c-12.23,3.69-18.35,8.33-18.35,13.92.69,4.64,2.9,6.96,6.64,6.96h1.58c4.22,0,7.38-1.06,9.49-3.16l2.53-.63h1.9c2.95.68,4.43,2.37,4.43,5.06,0,3.32-3.06,6.7-9.17,10.12-3.01,1.27-6.17,1.9-9.49,1.9h-.32c-9.17,0-15.92-3.38-20.25-10.12-1.27-3-1.9-5.85-1.9-8.54,0-11.44,8.44-20.09,25.31-25.94h3.48Z" fill="#246e8f"/><path d="M398.93,40.49c7.86,0,13.23,2.85,16.13,8.54l.95,5.06v2.21c0,8.01-3.38,12.97-10.12,14.87-5.48-.68-8.23-2.9-8.23-6.64v-.32c0-1.9,1.16-3.16,3.48-3.8,1.27-1.37,1.9-2.64,1.9-3.8,0-2.11-1.79-3.48-5.38-4.11-3.95,0-6.7,2-8.23,6.01l-.32,3.48v1.27c0,2.74,5.48,6.01,16.45,9.81,7.17,4.22,10.76,10.65,10.76,19.3v.63c0,12.44-6.22,20.56-18.67,24.36l-2.53.32c-6.64,0-12.44-4.01-17.4-12.02,0,3.48-2.95,6.85-8.86,10.12-3.64,1.48-7.43,2.21-11.39,2.21-9.7,0-16.35-4.64-19.93-13.92-2.53-4.85-3.8-10.12-3.8-15.82v-2.53c0-13.6,5.27-22.99,15.82-28.16l8.86-2.53h1.9c4.85,0,7.7,2.11,8.54,6.33v.63c0,3.48-3.8,6.12-11.39,7.91-5.91,5.06-8.86,11.5-8.86,19.3,0,6.06,1.79,10.6,5.38,13.6,1.27,1.06,2.95,1.58,5.06,1.58h.32c4.22,0,6.33-3.06,6.33-9.17,1.79-6.75,4.96-10.12,9.49-10.12h1.27c4.16,0,7.01,2.21,8.54,6.64,2.21,7.59,5.9,11.39,11.07,11.39h.32c4.06,0,6.7-2.95,7.91-8.86v-.32c0-6.75-6.33-11.49-18.98-14.24-5.48-2.53-8.23-6.85-8.23-12.97v-.32c0-12.92,4.53-21.25,13.6-24.99l8.23-.95Z" fill="#246e8f"/><path d="M406.76,103.77c1.9.42,2.85.84,2.85,1.27-3.01,25.41-6.06,43.87-9.17,55.36,0,2.32-13.6,4.53-40.81,6.64-10.12,0-16.56-3.48-19.3-10.44l-1.27-5.69c0-11.28,4.22-18.88,12.65-22.78l2.53-.63c3.38,0,5.06,1.37,5.06,4.11v.95c0,1.53-1.48,3.85-4.43,6.96-2,2.85-3.16,5.69-3.48,8.54,0,4.43,3.9,6.64,11.71,6.64,4.64,0,12.87-1.16,24.68-3.48,5.06-26.21,8.12-40.76,9.17-43.66,2.64-2.53,5.91-3.8,9.81-3.8Z" fill="#246e8f"/><path d="M461.57,50.3h1.27c11.39,0,19.09,4.64,23.09,13.92l.63,2.85c-1.11,2.95-3.32,4.43-6.64,4.43-3.06,0-5.27-1.79-6.64-5.38-2.11-3.16-5.8-4.75-11.07-4.75-7.54,0-15.45,3.27-23.73,9.81-4.64,4.9-6.96,9.86-6.96,14.87v1.9c0,8.12,4.32,14.34,12.97,18.67,1.95.63,3.74.95,5.38.95h.95c6.06,0,11.65-3.16,16.77-9.49,1.26-3.32,1.9-5.75,1.9-7.28,0-4.64-3.16-7.38-9.49-8.23-4.43.42-6.75,1.58-6.96,3.48l2.53,5.7v.63c0,3.8-2.64,5.69-7.91,5.69h-1.27c-4.85-3.27-7.28-7.28-7.28-12.02v-.63c0-7.96,6.12-13.23,18.35-15.82l4.11-.32c9.86,0,16.61,5.17,20.25,15.5l.95,6.01c0,11.02-7.07,19.46-21.2,25.31-3.06.84-7.17,1.48-12.34,1.9-13.76,0-23.68-6.33-29.74-18.98-.84-3.48-1.37-6.64-1.58-9.49,0-10.6,4.22-19.88,12.65-27.84,9.65-7.59,19.98-11.39,31-11.39Z" fill="#246e8f"/><path d="M537.1,48.4c12.97,0,23.2,5.8,30.69,17.4,2.11,4.8,3.16,9.54,3.16,14.24,0,10.07-4.64,20.3-13.92,30.69-5.91,4.64-11.71,6.96-17.4,6.96-10.91,0-18.3-6.75-22.15-20.25l-.63-7.28.63-5.69h-15.19c-2.95,7.86-4.43,15.34-4.43,22.46,0,13.45,5.59,23.78,16.77,31,4.9,2.53,9.12,3.8,12.65,3.8,14.5,0,26.1-7.49,34.8-22.46l3.8-7.91c1.74-1.69,3.43-2.53,5.06-2.53h.32c3.16.37,4.75,1.85,4.75,4.43,0,16.87-10.02,29.63-30.05,38.28-7.17,2.53-13.6,3.8-19.3,3.8-19.46,0-32.22-9.91-38.28-29.74-1.48-5.85-2.21-11.44-2.21-16.77v-3.16c0-16.77,6.33-31.64,18.98-44.61,9.44-8.44,20.09-12.65,31.95-12.65ZM512.11,72.45l.95.32c26.36,0,39.54.63,39.54,1.9,1.48,1.21,2.21,2.69,2.21,4.43v1.27c-.53,3.8-2.11,5.69-4.75,5.69-11.39,0-17.08.95-17.08,2.85-.79.47-1.53,1.32-2.21,2.53v4.75c0,6.33,2.64,9.49,7.91,9.49,6.38,0,12.39-5.48,18.03-16.45,1.05-3.21,1.58-5.54,1.58-6.96v-3.16c0-7.86-4.43-13.23-13.29-16.13l-6.01-.63h-2.85c-8.33,0-16.35,3.38-24.04,10.12Z" fill="#246e8f"/><path d="M545.8,4.11h1.9c5.91,0,11.07,3.38,15.5,10.12,3.48-1.9,6.43-2.85,8.86-2.85,7.49,0,13.5,3.59,18.03,10.76.84,2.37,1.27,4.27,1.27,5.69,0,3.85-2.21,7.65-6.64,11.39l-7.28,2.53c-2.74,0-4.43-2-5.06-6.01,0-1.58,1.37-2.95,4.11-4.11,2.95-2.27,4.43-4.38,4.43-6.33v-.32c-.84-3.16-2.32-4.75-4.43-4.75h-1.9c-2.27,0-4.48,1.37-6.64,4.11,1.9,5.8,2.85,11.6,2.85,17.4v4.75c0,6.8-.95,13.45-2.85,19.93l-4.75.95c-2.11,0-3.69-1.37-4.75-4.11l.95-14.55v-5.38l-.32-10.12-.32-.32c-3.95,2.53-7.64,3.8-11.07,3.8-6.75,0-11.6-4.43-14.55-13.29l-.32-3.16c0-7.7,3.38-12.97,10.12-15.82l2.85-.32ZM543.59,23.41c.79,3.16,2.16,4.75,4.11,4.75,1.37,0,4.32-2.95,8.86-8.86-.69-3.37-2.16-5.06-4.43-5.06h-1.58c-2.95,0-5.27,3.06-6.96,9.17Z" fill="#246e8f"/><path d="M829.07,7.22h1.35c4.21,0,7.88,2.4,11.04,7.21,2.48-1.35,4.58-2.03,6.31-2.03,5.33,0,9.61,2.55,12.84,7.66.6,1.69.9,3.04.9,4.05,0,2.74-1.58,5.44-4.73,8.11l-5.18,1.8c-1.95,0-3.15-1.43-3.6-4.28,0-1.13.98-2.1,2.93-2.93,2.1-1.61,3.15-3.12,3.15-4.5v-.23c-.6-2.25-1.65-3.38-3.15-3.38h-1.35c-1.61,0-3.19.98-4.73,2.93,1.35,4.13,2.03,8.26,2.03,12.39v3.38c0,4.84-.68,9.57-2.03,14.19l-3.38.68c-1.5,0-2.63-.98-3.38-2.93l.68-10.36v-3.83l-.23-7.21-.23-.23c-2.82,1.8-5.44,2.7-7.88,2.7-4.8,0-8.26-3.15-10.36-9.46l-.23-2.25c0-5.48,2.4-9.24,7.21-11.26l2.03-.23ZM827.49,20.96c.56,2.25,1.54,3.38,2.93,3.38.98,0,3.08-2.1,6.31-6.31-.49-2.4-1.54-3.6-3.15-3.6h-1.13c-2.1,0-3.75,2.18-4.95,6.53Z" fill="#246e8f"/><path d="M839.54,68.45c1.83-.79,3.82-1.14,5.84-1.2l-.2-6.32v-3.83l.68-10.36c-.75-1.95-1.88-2.93-3.38-2.93l-3.38.68c-1.35,4.62-.6.59-2.03,14.19v3.38c1.43,9.03,1.97,4.62,2.43,7.03.58-.28-.56-.37.04-.63Z" fill="#246e8f"/><path d="M616.83,50.3h1.27c11.39,0,19.09,4.64,23.09,13.92l.63,2.85c-1.11,2.95-3.32,4.43-6.64,4.43-3.06,0-5.27-1.79-6.64-5.38-2.11-3.16-5.8-4.75-11.07-4.75-7.54,0-15.45,3.27-23.73,9.81-4.64,4.9-6.96,9.86-6.96,14.87v1.9c0,8.12,4.32,14.34,12.97,18.67,1.95.63,3.74.95,5.38.95h.95c6.06,0,11.65-3.16,16.77-9.49,1.27-3.32,1.9-5.75,1.9-7.28,0-4.64-3.16-7.38-9.49-8.23-4.43.42-6.75,1.58-6.96,3.48l2.53,5.7v.63c0,3.8-2.64,5.69-7.91,5.69h-1.26c-4.85-3.27-7.28-7.28-7.28-12.02v-.63c0-7.96,6.12-13.23,18.35-15.82l4.11-.32c9.86,0,16.61,5.17,20.25,15.5l.95,6.01c0,11.02-7.07,19.46-21.2,25.31-3.06.84-7.17,1.48-12.34,1.9-13.76,0-23.67-6.33-29.74-18.98-.84-3.48-1.37-6.64-1.58-9.49,0-10.6,4.22-19.88,12.65-27.84,9.65-7.59,19.98-11.39,31-11.39Z" fill="#246e8f"/><path d="M682.39,17.72h1.27c17.61,0,30.69,8.75,39.23,26.26,2.95,7.38,4.43,14.87,4.43,22.46,0,20.77-7.59,36.06-22.78,45.87-6.75,3.8-14.24,5.69-22.46,5.69-18.82,0-31.79-8.12-38.91-24.36-1.06-3.59-1.58-6.85-1.58-9.81v-.63c0-7.59,3.06-15.4,9.17-23.41,7.33-6.33,15.03-9.49,23.09-9.49,10.86,0,18.24,5.91,22.15,17.72l.32,3.48v1.27c-.58,4.85-2.27,7.28-5.06,7.28h-.95c-2.11,0-3.9-2.74-5.38-8.23-3.85-5.69-8.28-8.54-13.29-8.54h-.63c-5.59,0-9.91,3.16-12.97,9.49-1.06,4.22-1.58,7.8-1.58,10.76,0,10.44,6.75,16.98,20.25,19.61h3.48c15.19,0,25.73-8.65,31.64-25.94l1.9-11.39c0-11.44-3.69-20.72-11.07-27.84-5.06-4.22-10.97-6.33-17.72-6.33h-.95c-12.92,0-24.73,6.01-35.43,18.03l-3.16.63c-2.43,0-4.01-1.9-4.75-5.7v-.32c0-6.17,6.96-13.45,20.88-21.83,7.54-3.16,14.5-4.75,20.88-4.75Z" fill="#246e8f"/><path d="M746.45,59.16c8.01,0,14.13,4.85,18.35,14.55.84,2.48,1.27,5.01,1.27,7.59v1.9c0,10.92-4.96,20.51-14.87,28.79-6.38,4.01-11.23,6.01-14.55,6.01-5.48-1.11-8.23-3.21-8.23-6.33v-2.21c.63-3.8,2.32-5.69,5.06-5.69l2.21.32c8.23,0,14.13-4.22,17.72-12.65,1.05-2.69,1.58-5.64,1.58-8.86,0-6.12-2.85-9.7-8.54-10.76h-.95c-4.64,0-6.96,2.95-6.96,8.86-1.85,2.74-3.53,4.11-5.06,4.11h-.63c-2.95,0-4.43-2.53-4.43-7.59,0-7.96,5.06-13.87,15.19-17.72l2.85-.32Z" fill="#246e8f"/><path d="M811.63,50.3h1.27c11.39,0,19.09,4.64,23.09,13.92l.63,2.85c-1.11,2.95-3.32,4.43-6.64,4.43-3.06,0-5.27-1.79-6.64-5.38-2.11-3.16-5.8-4.75-11.07-4.75-7.54,0-15.45,3.27-23.73,9.81-4.64,4.9-6.96,9.86-6.96,14.87v1.9c0,8.12,4.32,14.34,12.97,18.67,1.95.63,3.74.95,5.38.95h.95c6.06,0,11.65-3.16,16.77-9.49,1.27-3.32,1.9-5.75,1.9-7.28,0-4.64-3.16-7.38-9.49-8.23-4.43.42-6.75,1.58-6.96,3.48l2.53,5.7v.63c0,3.8-2.64,5.69-7.91,5.69h-1.27c-4.85-3.27-7.28-7.28-7.28-12.02v-.63c0-7.96,6.12-13.23,18.35-15.82l4.11-.32c9.86,0,16.61,5.17,20.25,15.5l.95,6.01c0,11.02-7.07,19.46-21.2,25.31-3.06.84-7.17,1.48-12.34,1.9-13.76,0-23.67-6.33-29.74-18.98-.84-3.48-1.37-6.64-1.58-9.49,0-10.6,4.22-19.88,12.65-27.84,9.65-7.59,19.98-11.39,31-11.39Z" fill="#246e8f"/><path d="M879.56,6.01c4.64.84,6.96,2.74,6.96,5.7v.63c0,3-2.53,8.59-7.59,16.77l-14.24,22.46h.32c4.53-1.27,8.44-1.9,11.71-1.9h3.8c16.34,0,27.21,9.17,32.58,27.52l.63,6.64v.32c0,13.92-8.12,24.57-24.36,31.95-5.38,1.27-10.44,1.9-15.18,1.9-16.66,0-28.47-8.12-35.43-24.36-1.27-3.64-2.11-8.49-2.53-14.55,0-11.18,5.59-23.83,16.77-37.96l17.4-24.68,4.75-9.17,4.43-1.27ZM850.46,79.72v3.48c0,8.12,5.38,14.45,16.13,18.98,2.85.84,5.69,1.27,8.54,1.27h2.85c5.38,0,11.49-3.16,18.35-9.49,2.32-3.69,3.48-7.17,3.48-10.44,0-9.02-3.69-15.13-11.07-18.35-1.58-.84-4.85-1.48-9.81-1.9-10.76,0-19.61,4.22-26.57,12.65-1.27,1.58-1.9,2.85-1.9,3.8Z" fill="#246e8f"/></g></svg>