<?xml version="1.0" encoding="UTF-8"?><svg id="Layer_1" xmlns="http://www.w3.org/2000/svg" xmlns:xlink="http://www.w3.org/1999/xlink" viewBox="0 0 4481 3254"><defs><clipPath id="clippath"><rect x="1400" y="694" width="1440" height="2560" transform="translate(4240 3948) rotate(180)" fill="none"/></clipPath><filter id="drop-shadow-1" x="1895" y="1268.52" width="450" height="450.24" filterUnits="userSpaceOnUse"><feOffset dx="0" dy="0"/><feGaussianBlur result="blur" stdDeviation="25"/><feFlood flood-color="#000" flood-opacity=".12"/><feComposite in2="blur" operator="in"/><feComposite in="SourceGraphic"/></filter></defs><g clip-path="url(#clippath)"><g filter="url(#drop-shadow-1)"><path d="M2120,1493.52h114c19.87,0,36,16.13,36,36v114h-150v-150h0Z" transform="translate(3763.52 -626.48) rotate(90)" fill="#246e8f"/><rect x="2161.4" y="1553.69" width="67.2" height="8.06" fill="#e6f7ff"/><rect x="2161.4" y="1575.29" width="67.2" height="8.06" fill="#e6f7ff"/><path d="M2006,1343.52h114v150h-150v-114c0-19.87,16.13-36,36-36Z" fill="#88daff"/><polygon points="2078.6 1414.49 2049.03 1414.49 2049.03 1384.92 2040.97 1384.92 2040.97 1414.49 2011.4 1414.49 2011.4 1422.55 2040.97 1422.55 2040.97 1452.12 2049.03 1452.12 2049.03 1422.55 2078.6 1422.55 2078.6 1414.49" fill="#e6f7ff"/><path d="M1970,1493.52h150v150h-114c-19.87,0-36-16.13-36-36v-114h0Z" fill="#88daff"/><polygon points="2065.91 1541.91 2045 1562.82 2024.09 1541.91 2018.39 1547.62 2039.3 1568.52 2018.39 1589.43 2024.09 1595.13 2045 1574.23 2065.91 1595.13 2071.61 1589.43 2050.7 1568.52 2071.61 1547.62 2065.91 1541.91" fill="#e6f7ff"/><path d="M2120,1343.52h114c19.87,0,36,16.13,36,36v114h-150v-150h0Z" fill="#88daff"/><rect x="2161.4" y="1414.49" width="67.2" height="8.06" fill="#e6f7ff"/><polygon points="2270 1492.92 2120.6 1492.92 2120.6 1343.52 2119.4 1343.52 2119.4 1492.92 1970 1492.92 1970 1494.12 2119.4 1494.12 2119.4 1643.52 2120.6 1643.52 2120.6 1494.12 2270 1494.12 2270 1492.92" fill="#fff"/></g><path d="M1686.23,1858.25h.95c8.86,0,14.02,5.69,15.5,17.08v4.11l-.32,2.21h.32c10.18-6.12,19.03-9.17,26.57-9.17h4.43c15.24,0,25.47,6.54,30.69,19.61,1.27,4.27,1.9,8.49,1.9,12.65v1.58c0,14.71-6.64,24.94-19.93,30.69-2.69,1.05-5.01,1.58-6.96,1.58-2.69,0-4.48-2-5.38-6.01,0-3.85,2.11-6.06,6.33-6.64,5.33-2.06,9.02-5.11,11.07-9.18,2.11-4.32,3.16-8.12,3.16-11.39v-.63c-1.63-13.08-8.17-19.61-19.61-19.61h-1.27l-11.07.95v.63c10.33,4.17,15.5,11.55,15.5,22.15s-5.06,18.56-15.19,24.68c-3.16,1.06-5.69,1.58-7.59,1.58h-1.9c-3.85,0-7.75-1.48-11.71-4.43h-.32c-3.8,2.95-7.07,4.43-9.81,4.43-4.75,0-9.39-4.01-13.92-12.02h-.32c-2.8,5.27-5.85,7.91-9.17,7.91h-.32c-2.27,0-3.53-1.9-3.8-5.69,0-5.8,6.85-15.92,20.56-30.37,4.22-3.32,6.33-5.33,6.33-6.01,1.27-4.27,1.9-7.43,1.9-9.49v-1.9c-1.53-5.9-4.27-8.86-8.23-8.86h-1.58c-4.06,0-7.22,2.64-9.49,7.91v.63c.63,1.48,1.58,2.21,2.85,2.21.79,0,1.95-2,3.48-6.01l.95-.32c3.37,0,5.69,1.48,6.96,4.43,0,4.32-2.43,8.44-7.28,12.34-2.48,1.06-4.17,1.58-5.06,1.58h-1.9c-6.01,0-9.49-3.8-10.44-11.39v-.63c0-3.53,1.9-8.07,5.69-13.6,5.27-5.06,11.07-7.59,17.4-7.59ZM1683.7,1914.88c2.74,0,5.48,2.95,8.23,8.86l1.9.63c1.9-.37,2.85-1.63,2.85-3.8v-5.38c0-4.27,2.11-7.33,6.33-9.17h1.27c1.74,0,3.22,1.37,4.43,4.11l-.32,2.21v4.11c.42,5.49,1.79,8.23,4.11,8.23l.32.32h.32c6.96,0,11.49-3.16,13.6-9.49.42-.95.63-2.32.63-4.11v-2.53c0-6.96-3.8-11.39-11.39-13.29l-5.38-.32c-8.12,0-13.71,2.21-16.77,6.64-5.59,5.38-8.96,9.7-10.12,12.97Z" fill="#246e8f"/><path d="M1776.71,1877.23c7.06,0,15.71,1.37,25.94,4.11l.32.95c-1.69,7.59-4.43,11.39-8.23,11.39-9.7,4.43-14.55,10.33-14.55,17.72v.95c0,5.06,2.11,8.44,6.33,10.12l2.85.32c3.53,0,6.06-1.58,7.59-4.75,1.95-.84,3.53-1.27,4.75-1.27,2.69,0,4.38,1.79,5.06,5.38,0,4.48-3.27,8.49-9.81,12.02-2.58.84-4.8,1.27-6.64,1.27h-.63c-9.02,0-15.87-4.11-20.56-12.34-1.06-3.22-1.58-6.27-1.58-9.17,0-8.38,4.75-16.08,14.24-23.09v-.32l-2.21-.32h-.63l-8.54.63c-.84-.26-1.27-1.21-1.27-2.85v-3.48c0-4.85,2-7.28,6.01-7.28h1.58Z" fill="#246e8f"/><path d="M1858.01,1865.84c12.97,0,23.2,5.8,30.69,17.4,2.11,4.8,3.16,9.54,3.16,14.24,0,10.07-4.64,20.3-13.92,30.69-5.91,4.64-11.71,6.96-17.4,6.96-10.91,0-18.3-6.75-22.15-20.25l-.63-7.28.63-5.69h-15.19c-2.95,7.86-4.43,15.34-4.43,22.46,0,13.45,5.59,23.78,16.77,31,4.9,2.53,9.12,3.8,12.65,3.8,14.5,0,26.1-7.49,34.8-22.46l3.8-7.91c1.74-1.69,3.43-2.53,5.06-2.53h.32c3.16.37,4.75,1.85,4.75,4.43,0,16.87-10.02,29.63-30.05,38.28-7.17,2.53-13.6,3.8-19.3,3.8-19.46,0-32.22-9.91-38.28-29.74-1.48-5.85-2.21-11.44-2.21-16.77v-3.16c0-16.77,6.33-31.64,18.98-44.61,9.44-8.44,20.09-12.65,31.95-12.65ZM1833.02,1889.88l.95.32c26.36,0,39.55.63,39.55,1.9,1.48,1.21,2.21,2.69,2.21,4.43v1.27c-.53,3.8-2.11,5.69-4.75,5.69-11.39,0-17.08.95-17.08,2.85-.79.47-1.53,1.32-2.21,2.53v4.75c0,6.33,2.64,9.49,7.91,9.49,6.38,0,12.39-5.48,18.03-16.45,1.05-3.21,1.58-5.54,1.58-6.96v-3.16c0-7.86-4.43-13.23-13.29-16.13l-6.01-.63h-2.85c-8.33,0-16.35,3.38-24.04,10.12Z" fill="#246e8f"/><path d="M1863.07,1817.44h1.58c10.91,0,18.51,4.43,22.78,13.29.84,3.16,1.27,5.91,1.27,8.23v1.27c-.58,9.49-2.48,14.24-5.69,14.24l-1.27.32h-.32c-1.69,0-3.58-.95-5.69-2.85l.95-8.22v-1.58c0-7.8-4.22-11.71-12.65-11.71-4.11,0-8.75,1.48-13.92,4.43-3.27,2.69-5.69,7.86-7.28,15.5-1.63,4.01-4.06,6.01-7.28,6.01h-.63c-2.74,0-4.11-1.69-4.11-5.06,0-15.34,6.85-25.99,20.56-31.95,4.59-1.27,8.49-1.9,11.71-1.9Z" fill="#246e8f"/><path d="M1915.59,1858.25h.95c8.86,0,14.02,5.69,15.5,17.08v4.11l-.32,2.21h.32c10.18-6.12,19.03-9.17,26.57-9.17h4.43c15.24,0,25.47,6.54,30.69,19.61,1.27,4.27,1.9,8.49,1.9,12.65v1.58c0,14.71-6.64,24.94-19.93,30.69-2.69,1.05-5.01,1.58-6.96,1.58-2.69,0-4.48-2-5.38-6.01,0-3.85,2.11-6.06,6.33-6.64,5.33-2.06,9.02-5.11,11.07-9.18,2.11-4.32,3.16-8.12,3.16-11.39v-.63c-1.63-13.08-8.17-19.61-19.61-19.61h-1.27l-11.07.95v.63c10.33,4.17,15.5,11.55,15.5,22.15s-5.06,18.56-15.19,24.68c-3.16,1.06-5.69,1.58-7.59,1.58h-1.9c-3.85,0-7.75-1.48-11.71-4.43h-.32c-3.8,2.95-7.07,4.43-9.81,4.43-4.75,0-9.39-4.01-13.92-12.02h-.32c-2.8,5.27-5.85,7.91-9.17,7.91h-.32c-2.27,0-3.53-1.9-3.8-5.69,0-5.8,6.85-15.92,20.56-30.37,4.22-3.32,6.33-5.33,6.33-6.01,1.27-4.27,1.9-7.43,1.9-9.49v-1.9c-1.53-5.9-4.27-8.86-8.23-8.86h-1.58c-4.06,0-7.22,2.64-9.49,7.91v.63c.63,1.48,1.58,2.21,2.85,2.21.79,0,1.95-2,3.48-6.01l.95-.32c3.37,0,5.69,1.48,6.96,4.43,0,4.32-2.43,8.44-7.28,12.34-2.48,1.06-4.17,1.58-5.06,1.58h-1.9c-6.01,0-9.49-3.8-10.44-11.39v-.63c0-3.53,1.9-8.07,5.69-13.6,5.27-5.06,11.07-7.59,17.4-7.59ZM1913.06,1914.88c2.74,0,5.48,2.95,8.23,8.86l1.9.63c1.9-.37,2.85-1.63,2.85-3.8v-5.38c0-4.27,2.11-7.33,6.33-9.17h1.27c1.74,0,3.22,1.37,4.43,4.11l-.32,2.21v4.11c.42,5.49,1.79,8.23,4.11,8.23l.32.32h.32c6.96,0,11.49-3.16,13.6-9.49.42-.95.63-2.32.63-4.11v-2.53c0-6.96-3.8-11.39-11.39-13.29l-5.38-.32c-8.12,0-13.71,2.21-16.77,6.64-5.59,5.38-8.96,9.7-10.12,12.97Z" fill="#246e8f"/><path d="M1990.49,1922.47c2.11,0,3.59,3.48,4.43,10.44h-.32c-12.23,3.69-18.35,8.33-18.35,13.92.69,4.64,2.9,6.96,6.64,6.96h1.58c4.22,0,7.38-1.06,9.49-3.16l2.53-.63h1.9c2.95.68,4.43,2.37,4.43,5.06,0,3.32-3.06,6.7-9.17,10.12-3.01,1.27-6.17,1.9-9.49,1.9h-.32c-9.17,0-15.92-3.38-20.25-10.12-1.27-3-1.9-5.85-1.9-8.54,0-11.44,8.44-20.09,25.31-25.94h3.48Z" fill="#246e8f"/><path d="M2062.07,1857.93c7.86,0,13.23,2.85,16.13,8.54l.95,5.06v2.21c0,8.01-3.38,12.97-10.12,14.87-5.48-.68-8.23-2.9-8.23-6.64v-.32c0-1.9,1.16-3.16,3.48-3.8,1.27-1.37,1.9-2.64,1.9-3.8,0-2.11-1.79-3.48-5.38-4.11-3.95,0-6.7,2-8.23,6.01l-.32,3.48v1.27c0,2.74,5.48,6.01,16.45,9.81,7.17,4.22,10.76,10.65,10.76,19.3v.63c0,12.44-6.22,20.56-18.67,24.36l-2.53.32c-6.64,0-12.44-4.01-17.4-12.02,0,3.48-2.95,6.85-8.86,10.12-3.64,1.48-7.43,2.21-11.39,2.21-9.7,0-16.35-4.64-19.93-13.92-2.53-4.85-3.8-10.12-3.8-15.82v-2.53c0-13.6,5.27-22.99,15.82-28.16l8.86-2.53h1.9c4.85,0,7.7,2.11,8.54,6.33v.63c0,3.48-3.8,6.12-11.39,7.91-5.91,5.06-8.86,11.5-8.86,19.3,0,6.06,1.79,10.6,5.38,13.6,1.27,1.06,2.95,1.58,5.06,1.58h.32c4.22,0,6.33-3.06,6.33-9.17,1.79-6.75,4.96-10.12,9.49-10.12h1.27c4.16,0,7.01,2.21,8.54,6.64,2.21,7.59,5.9,11.39,11.07,11.39h.32c4.06,0,6.7-2.95,7.91-8.86v-.32c0-6.75-6.33-11.49-18.98-14.24-5.48-2.53-8.23-6.85-8.23-12.97v-.32c0-12.92,4.53-21.25,13.6-24.99l8.23-.95Z" fill="#246e8f"/><path d="M2069.9,1921.2c1.9.42,2.85.84,2.85,1.27-3.01,25.41-6.06,43.87-9.17,55.36,0,2.32-13.6,4.53-40.81,6.64-10.12,0-16.56-3.48-19.3-10.44l-1.27-5.69c0-11.28,4.22-18.88,12.65-22.78l2.53-.63c3.38,0,5.06,1.37,5.06,4.11v.95c0,1.53-1.48,3.85-4.43,6.96-2,2.85-3.16,5.69-3.48,8.54,0,4.43,3.9,6.64,11.71,6.64,4.64,0,12.87-1.16,24.68-3.48,5.06-26.21,8.12-40.76,9.17-43.66,2.64-2.53,5.91-3.8,9.81-3.8Z" fill="#246e8f"/><path d="M2124.71,1867.74h1.27c11.39,0,19.09,4.64,23.09,13.92l.63,2.85c-1.11,2.95-3.32,4.43-6.64,4.43-3.06,0-5.27-1.79-6.64-5.38-2.11-3.16-5.8-4.75-11.07-4.75-7.54,0-15.45,3.27-23.73,9.81-4.64,4.9-6.96,9.86-6.96,14.87v1.9c0,8.12,4.32,14.34,12.97,18.67,1.95.63,3.74.95,5.38.95h.95c6.06,0,11.65-3.16,16.77-9.49,1.26-3.32,1.9-5.75,1.9-7.28,0-4.64-3.16-7.38-9.49-8.23-4.43.42-6.75,1.58-6.96,3.48l2.53,5.7v.63c0,3.8-2.64,5.69-7.91,5.69h-1.27c-4.85-3.27-7.28-7.28-7.28-12.02v-.63c0-7.96,6.12-13.23,18.35-15.82l4.11-.32c9.86,0,16.61,5.17,20.25,15.5l.95,6.01c0,11.02-7.07,19.46-21.2,25.31-3.06.84-7.17,1.48-12.34,1.9-13.76,0-23.68-6.33-29.74-18.98-.84-3.48-1.37-6.64-1.58-9.49,0-10.6,4.22-19.88,12.65-27.84,9.65-7.59,19.98-11.39,31-11.39Z" fill="#246e8f"/><path d="M2200.24,1865.84c12.97,0,23.2,5.8,30.69,17.4,2.11,4.8,3.16,9.54,3.16,14.24,0,10.07-4.64,20.3-13.92,30.69-5.91,4.64-11.71,6.96-17.4,6.96-10.91,0-18.3-6.75-22.15-20.25l-.63-7.28.63-5.69h-15.19c-2.95,7.86-4.43,15.34-4.43,22.46,0,13.45,5.59,23.78,16.77,31,4.9,2.53,9.12,3.8,12.65,3.8,14.5,0,26.1-7.49,34.8-22.46l3.8-7.91c1.74-1.69,3.43-2.53,5.06-2.53h.32c3.16.37,4.75,1.85,4.75,4.43,0,16.87-10.02,29.63-30.05,38.28-7.17,2.53-13.6,3.8-19.3,3.8-19.46,0-32.22-9.91-38.28-29.74-1.48-5.85-2.21-11.44-2.21-16.77v-3.16c0-16.77,6.33-31.64,18.98-44.61,9.44-8.44,20.09-12.65,31.95-12.65ZM2175.24,1889.88l.95.32c26.36,0,39.54.63,39.54,1.9,1.48,1.21,2.21,2.69,2.21,4.43v1.27c-.53,3.8-2.11,5.69-4.75,5.69-11.39,0-17.08.95-17.08,2.85-.79.47-1.53,1.32-2.21,2.53v4.75c0,6.33,2.64,9.49,7.91,9.49,6.38,0,12.39-5.48,18.03-16.45,1.05-3.21,1.58-5.54,1.58-6.96v-3.16c0-7.86-4.43-13.23-13.29-16.13l-6.01-.63h-2.85c-8.33,0-16.35,3.38-24.04,10.12Z" fill="#246e8f"/><path d="M2208.94,1821.55h1.9c5.91,0,11.07,3.38,15.5,10.12,3.48-1.9,6.43-2.85,8.86-2.85,7.49,0,13.5,3.59,18.03,10.76.84,2.37,1.27,4.27,1.27,5.69,0,3.85-2.21,7.65-6.64,11.39l-7.28,2.53c-2.74,0-4.43-2-5.06-6.01,0-1.58,1.37-2.95,4.11-4.11,2.95-2.27,4.43-4.38,4.43-6.33v-.32c-.84-3.16-2.32-4.75-4.43-4.75h-1.9c-2.27,0-4.48,1.37-6.64,4.11,1.9,5.8,2.85,11.6,2.85,17.4v4.75c0,6.8-.95,13.45-2.85,19.93l-4.75.95c-2.11,0-3.69-1.37-4.75-4.11l.95-14.55v-5.38l-.32-10.12-.32-.32c-3.95,2.53-7.64,3.8-11.07,3.8-6.75,0-11.6-4.43-14.55-13.29l-.32-3.16c0-7.7,3.38-12.97,10.12-15.82l2.85-.32ZM2206.72,1840.85c.79,3.16,2.16,4.75,4.11,4.75,1.37,0,4.32-2.95,8.86-8.86-.69-3.37-2.16-5.06-4.43-5.06h-1.58c-2.95,0-5.27,3.06-6.96,9.17Z" fill="#246e8f"/><path d="M2492.2,1824.66h1.35c4.21,0,7.88,2.4,11.04,7.21,2.48-1.35,4.58-2.03,6.31-2.03,5.33,0,9.61,2.55,12.84,7.66.6,1.69.9,3.04.9,4.05,0,2.74-1.58,5.44-4.73,8.11l-5.18,1.8c-1.95,0-3.15-1.43-3.6-4.28,0-1.13.98-2.1,2.93-2.93,2.1-1.61,3.15-3.12,3.15-4.5v-.23c-.6-2.25-1.65-3.38-3.15-3.38h-1.35c-1.61,0-3.19.98-4.73,2.93,1.35,4.13,2.03,8.26,2.03,12.39v3.38c0,4.84-.68,9.57-2.03,14.19l-3.38.68c-1.5,0-2.63-.98-3.38-2.93l.68-10.36v-3.83l-.23-7.21-.23-.23c-2.82,1.8-5.44,2.7-7.88,2.7-4.8,0-8.26-3.15-10.36-9.46l-.23-2.25c0-5.48,2.4-9.24,7.21-11.26l2.03-.23ZM2490.63,1838.4c.56,2.25,1.54,3.38,2.93,3.38.98,0,3.08-2.1,6.31-6.31-.49-2.4-1.54-3.6-3.15-3.6h-1.13c-2.1,0-3.75,2.18-4.95,6.53Z" fill="#246e8f"/><path d="M2502.68,1885.89c1.83-.79,3.82-1.14,5.84-1.2l-.2-6.32v-3.83l.68-10.36c-.75-1.95-1.88-2.93-3.38-2.93l-3.38.68c-1.35,4.62-.6.59-2.03,14.19v3.38c1.43,9.03,1.97,4.62,2.43,7.03.58-.28-.56-.37.04-.63Z" fill="#246e8f"/><path d="M2279.96,1867.74h1.27c11.39,0,19.09,4.64,23.09,13.92l.63,2.85c-1.11,2.95-3.32,4.43-6.64,4.43-3.06,0-5.27-1.79-6.64-5.38-2.11-3.16-5.8-4.75-11.07-4.75-7.54,0-15.45,3.27-23.73,9.81-4.64,4.9-6.96,9.86-6.96,14.87v1.9c0,8.12,4.32,14.34,12.97,18.67,1.95.63,3.74.95,5.38.95h.95c6.06,0,11.65-3.16,16.77-9.49,1.27-3.32,1.9-5.75,1.9-7.28,0-4.64-3.16-7.38-9.49-8.23-4.43.42-6.75,1.58-6.96,3.48l2.53,5.7v.63c0,3.8-2.64,5.69-7.91,5.69h-1.26c-4.85-3.27-7.28-7.28-7.28-12.02v-.63c0-7.96,6.12-13.23,18.35-15.82l4.11-.32c9.86,0,16.61,5.17,20.25,15.5l.95,6.01c0,11.02-7.07,19.46-21.2,25.31-3.06.84-7.17,1.48-12.34,1.9-13.76,0-23.67-6.33-29.74-18.98-.84-3.48-1.37-6.64-1.58-9.49,0-10.6,4.22-19.88,12.65-27.84,9.65-7.59,19.98-11.39,31-11.39Z" fill="#246e8f"/><path d="M2345.53,1835.15h1.27c17.61,0,30.69,8.75,39.23,26.26,2.95,7.38,4.43,14.87,4.43,22.46,0,20.77-7.59,36.06-22.78,45.87-6.75,3.8-14.24,5.69-22.46,5.69-18.82,0-31.79-8.12-38.91-24.36-1.06-3.59-1.58-6.85-1.58-9.81v-.63c0-7.59,3.06-15.4,9.17-23.41,7.33-6.33,15.03-9.49,23.09-9.49,10.86,0,18.24,5.91,22.15,17.72l.32,3.48v1.27c-.58,4.85-2.27,7.28-5.06,7.28h-.95c-2.11,0-3.9-2.74-5.38-8.23-3.85-5.69-8.28-8.54-13.29-8.54h-.63c-5.59,0-9.91,3.16-12.97,9.49-1.06,4.22-1.58,7.8-1.58,10.76,0,10.44,6.75,16.98,20.25,19.61h3.48c15.19,0,25.73-8.65,31.64-25.94l1.9-11.39c0-11.44-3.69-20.72-11.07-27.84-5.06-4.22-10.97-6.33-17.72-6.33h-.95c-12.92,0-24.73,6.01-35.43,18.03l-3.16.63c-2.43,0-4.01-1.9-4.75-5.7v-.32c0-6.17,6.96-13.45,20.88-21.83,7.54-3.16,14.5-4.75,20.88-4.75Z" fill="#246e8f"/><path d="M2409.59,1876.6c8.01,0,14.13,4.85,18.35,14.55.84,2.48,1.27,5.01,1.27,7.59v1.9c0,10.92-4.96,20.51-14.87,28.79-6.38,4.01-11.23,6.01-14.55,6.01-5.48-1.11-8.23-3.21-8.23-6.33v-2.21c.63-3.8,2.32-5.69,5.06-5.69l2.21.32c8.23,0,14.13-4.22,17.72-12.65,1.05-2.69,1.58-5.64,1.58-8.86,0-6.12-2.85-9.7-8.54-10.76h-.95c-4.64,0-6.96,2.95-6.96,8.86-1.85,2.74-3.53,4.11-5.06,4.11h-.63c-2.95,0-4.43-2.53-4.43-7.59,0-7.96,5.06-13.87,15.19-17.72l2.85-.32Z" fill="#246e8f"/><path d="M2474.76,1867.74h1.27c11.39,0,19.09,4.64,23.09,13.92l.63,2.85c-1.11,2.95-3.32,4.43-6.64,4.43-3.06,0-5.27-1.79-6.64-5.38-2.11-3.16-5.8-4.75-11.07-4.75-7.54,0-15.45,3.27-23.73,9.81-4.64,4.9-6.96,9.86-6.96,14.87v1.9c0,8.12,4.32,14.34,12.97,18.67,1.95.63,3.74.95,5.38.95h.95c6.06,0,11.65-3.16,16.77-9.49,1.27-3.32,1.9-5.75,1.9-7.28,0-4.64-3.16-7.38-9.49-8.23-4.43.42-6.75,1.58-6.96,3.48l2.53,5.7v.63c0,3.8-2.64,5.69-7.91,5.69h-1.27c-4.85-3.27-7.28-7.28-7.28-12.02v-.63c0-7.96,6.12-13.23,18.35-15.82l4.11-.32c9.86,0,16.61,5.17,20.25,15.5l.95,6.01c0,11.02-7.07,19.46-21.2,25.31-3.06.84-7.17,1.48-12.34,1.9-13.76,0-23.67-6.33-29.74-18.98-.84-3.48-1.37-6.64-1.58-9.49,0-10.6,4.22-19.88,12.65-27.84,9.65-7.59,19.98-11.39,31-11.39Z" fill="#246e8f"/><path d="M2542.7,1823.45c4.64.84,6.96,2.74,6.96,5.7v.63c0,3-2.53,8.59-7.59,16.77l-14.24,22.46h.32c4.53-1.27,8.44-1.9,11.71-1.9h3.8c16.34,0,27.21,9.17,32.58,27.52l.63,6.64v.32c0,13.92-8.12,24.57-24.36,31.95-5.38,1.27-10.44,1.9-15.18,1.9-16.66,0-28.47-8.12-35.43-24.36-1.27-3.64-2.11-8.49-2.53-14.55,0-11.18,5.59-23.83,16.77-37.96l17.4-24.68,4.75-9.17,4.43-1.27ZM2513.59,1897.16v3.48c0,8.12,5.38,14.45,16.13,18.98,2.85.84,5.69,1.27,8.54,1.27h2.85c5.38,0,11.49-3.16,18.35-9.49,2.32-3.69,3.48-7.17,3.48-10.44,0-9.02-3.69-15.13-11.07-18.35-1.58-.84-4.85-1.48-9.81-1.9-10.76,0-19.61,4.22-26.57,12.65-1.27,1.58-1.9,2.85-1.9,3.8Z" fill="#246e8f"/><path d="M1999.23,3139.09h.48c4.3,0,7.2,1.75,8.71,5.25l.24,1.07c-.42,1.11-1.25,1.67-2.51,1.67-1.15,0-1.99-.68-2.51-2.03-.8-1.19-2.19-1.79-4.18-1.79-2.84,0-5.83,1.23-8.95,3.7-1.75,1.85-2.63,3.72-2.63,5.61v.72c0,3.06,1.63,5.41,4.89,7.04.74.24,1.41.36,2.03.36h.36c2.29,0,4.4-1.19,6.32-3.58.48-1.25.72-2.17.72-2.74,0-1.75-1.19-2.78-3.58-3.1-1.67.16-2.55.6-2.62,1.31l.95,2.15v.24c0,1.43-.99,2.15-2.98,2.15h-.48c-1.83-1.23-2.74-2.74-2.74-4.53v-.24c0-3,2.31-4.99,6.92-5.97l1.55-.12c3.72,0,6.26,1.95,7.64,5.85l.36,2.27c0,4.16-2.67,7.34-8,9.55-1.15.32-2.7.56-4.65.72-5.19,0-8.93-2.39-11.22-7.16-.32-1.31-.52-2.51-.6-3.58,0-4,1.59-7.5,4.77-10.5,3.64-2.86,7.54-4.3,11.69-4.3Z" fill="#2a3b55"/><path d="M2028.79,3119.88c3.32,0,6.46,1.79,9.43,5.37.8,1.57,1.19,2.72,1.19,3.46,0,1.37-.76,2.8-2.27,4.3h-.24c-.16-.02-.88-1.21-2.15-3.58-1.75-2.31-3.46-3.46-5.13-3.46h-1.19v.12c1.81.62,4.08,2.45,6.8,5.49,2.31,2.92,3.46,5.95,3.46,9.07,0,8.19-1.99,14.56-5.97,19.09-3.14,3.26-7.08,4.89-11.81,4.89h-1.07c-4.55,0-7.9-2.62-10.02-7.88-.64-2.09-.95-4.04-.95-5.85v-1.19c0-3.66,1.19-6.96,3.58-9.9,1.03-1.11,2.15-1.67,3.34-1.67,1.57,0,2.88,1.23,3.94,3.7v1.07l-.36,3.58c0,1.83.88,2.75,2.63,2.75s2.98-1.35,3.82-4.06l.12-1.55c0-1.59-.44-2.39-1.31-2.39-.48,0-.72.72-.72,2.15l.24,2.51c-.44.96-1.03,1.43-1.79,1.43-1.27,0-1.91-.72-1.91-2.15l-.12-2.03c0-2.96.95-5.15,2.86-6.56.4-.24.91-.36,1.55-.36h.24c2.03,0,3.5,1.35,4.42,4.06l.24,1.67v1.07c0,5.29-1.91,8.79-5.73,10.5l-1.67.24h-.72c-3.74,0-5.61-1.51-5.61-4.53v-.96l.24-2.39c-.1-.72-.34-1.07-.72-1.07-1.03.52-1.55,1.51-1.55,2.98,0,5.51,1.39,9.01,4.18,10.5,1.09.56,2.09.83,2.98.83,3.92,0,7.42-2.62,10.5-7.88,1.35-3.06,2.03-5.61,2.03-7.64v-1.43c0-4.38-3.14-8.39-9.43-12.05-.95,2.03-3.06,3.62-6.32,4.77-.76.32-1.75.52-2.98.6-4.22-.58-6.32-2.68-6.32-6.32,0-2.84,1.71-4.75,5.13-5.73l3.7-.36c1.59.08,2.98.24,4.18.48,2.11-2.47,4.53-3.7,7.28-3.7ZM2012.68,3130.86c.3.24.58.36.84.36h.24c1.27,0,2.94-1.07,5.01-3.22l-2.39-.24h-.24c-1.73,0-2.88.8-3.46,2.39v.72Z" fill="#2a3b55"/><path d="M2062.35,3120.48c3.62,0,6.84,1.83,9.67,5.49.48.56.88,1.67,1.19,3.34,0,1.39-.76,2.82-2.27,4.3h-.36c-1.01-1.91-2.09-3.58-3.22-5.01-1.37-1.35-2.73-2.03-4.06-2.03h-.84l-.6.12v.12c4.43,2.25,7.78,5.59,10.02,10.02,1.03,2.09,1.55,5.31,1.55,9.67,0,6.54-1.63,11.79-4.89,15.75-1.61,1.59-3.16,2.39-4.65,2.39-2.01,0-3.6-1.39-4.77-4.18v-.12h-.24c0,1.61-1.35,2.96-4.06,4.06l-1.79.24h-.36c-3.02,0-5.05-1.11-6.09-3.34-.24-.62-.36-1.17-.36-1.67v-.72c0-.56.08-.99.24-1.31h-.12l-1.07.12c-2.11,0-3.9-.64-5.37-1.91-.32-.62-.48-1.29-.48-2.03.14-1.03.42-1.55.84-1.55,2.13.32,3.72.48,4.77.48h.72c2.72,0,5.59-1.35,8.59-4.06.95-1.53,1.43-2.92,1.43-4.18v-.6c-.26-2.55-1.41-3.82-3.46-3.82h-.84c-2.05,0-3.44,1.03-4.18,3.1-.16.36-.24.88-.24,1.55.28,1.04.76,1.55,1.43,1.55h.36l.72-.72v-.24c-.64-.42-.95-.93-.95-1.55,0-.76.6-1.23,1.79-1.43h1.07c1.99.18,2.98.93,2.98,2.27v.24c0,1.35-.95,2.74-2.86,4.18-.99.56-2.15.84-3.46.84-2.88,0-4.55-1.99-5.01-5.97,0-3.14,2.07-5.57,6.2-7.28l1.55-.24h.84c3.7,0,6.48,1.67,8.35,5.01l.24,2.27v.95c0,4.61-2.82,8.27-8.47,10.98-.64,1.21-.95,2.13-.95,2.74.2,1.19.84,1.79,1.91,1.79,1.39,0,2.27-.68,2.63-2.03.24-1.99.64-3.38,1.19-4.18.81-.88,1.77-1.31,2.86-1.31,1.59,0,2.7,1.27,3.34,3.82.48.48.88.72,1.19.72h.12c1.81,0,3.04-3.3,3.7-9.9v-2.03c0-5.21-3.34-9.86-10.02-13.96h-.12c-1.21,2.05-3.6,3.6-7.16,4.65l-1.91.24c-4.22-.52-6.32-2.62-6.32-6.32,0-3.44,2.39-5.43,7.16-5.97h2.15l3.7.36c2.21-2.47,4.55-3.7,7.04-3.7ZM2046.48,3131.45c.3.24.58.36.84.36,1.51,0,3.22-1.03,5.13-3.1l-2.62-.36c-2.23.24-3.34,1.27-3.34,3.1Z" fill="#2a3b55"/><path d="M2107.43,3119.04h.24c7.68,0,12.81,2.86,15.39,8.59l.6,2.39c-.36,1.03-.95,1.55-1.79,1.55-.4-.02-1.27-.86-2.62-2.51-3.76-3.1-7.02-4.65-9.78-4.65h-3.46c-4.79,0-8.69,1.99-11.69,5.97.08.88.2,1.31.36,1.31h.12l4.65-2.98c2.07-.96,4.49-1.43,7.28-1.43,7.44,0,12.45,3.22,15.04,9.67,1.03,2.84,1.55,5.91,1.55,9.19,0,7.8-2.9,13.4-8.71,16.82-2.43,1.11-4.89,1.67-7.4,1.67-3.14,0-6.13-.79-8.95-2.39-2.15-1.93-3.22-4.08-3.22-6.44,0-2.72,1.35-4.55,4.06-5.49.52-.14,3.26-.26,8.23-.36,1.91-.44,2.86-.99,2.86-1.67.79-1.23,1.19-2.67,1.19-4.3,0-2.7-1.31-4.45-3.94-5.25-.74-.24-1.41-.36-2.03-.36-2.09,0-3.56,1.23-4.42,3.7v1.31c0,1.51.91,2.27,2.74,2.27l.84-.96v-.12c0-.26-.56-.46-1.67-.6-.48-.54-.72-.89-.72-1.07.66-1.67,1.89-2.51,3.7-2.51h.72c1.91.44,2.86,1.39,2.86,2.86v.24c0,2.79-1.39,4.58-4.18,5.37l-1.55.12h-.95c-2.05,0-3.84-1.19-5.37-3.58-.32-.76-.52-1.59-.6-2.51,0-3.24,1.59-5.91,4.77-8,1.21-.64,2.37-.96,3.46-.96h.95c2.98,0,5.61,1.43,7.88,4.3,1.35,2.07,2.03,4.34,2.03,6.8v.24c0,4.65-1.75,7.72-5.25,9.19,0,.24-2.62.44-7.88.6-1.83.3-2.74.82-2.74,1.55,0,1.17,1.59,2.05,4.77,2.62l1.79.12h.96c4.93,0,8.43-2.98,10.5-8.95.24-1.69.36-3.28.36-4.77,0-6.84-2.35-11.02-7.04-12.53-1.57-.72-3.44-1.07-5.61-1.07s-4.52.92-6.92,2.75c-2.45,1.27-4.2,1.91-5.25,1.91h-.84c-2.03,0-3.3-2.03-3.82-6.09,0-4.71,3.94-8.29,11.81-10.74,2.35-.56,4.57-.83,6.68-.83Z" fill="#2a3b55"/><path d="M2131.2,3135.51h.72c3.3,0,5.81,1.55,7.52,4.65.56,1.19.83,2.31.83,3.34v.12h.12c3.12-1.43,6.03-2.15,8.71-2.15,4.87,0,8.69,1.79,11.46,5.37,1.27,1.75,1.91,3.74,1.91,5.97v.24c0,4.36-2.62,8.45-7.88,12.29-.34.32-.66.48-.96.48h-.12c-1.99-.2-2.98-1.07-2.98-2.62,4.85-3.94,7.28-7.28,7.28-10.02v-.72c0-2.69-1.79-4.63-5.37-5.85-1.27-.32-2.55-.48-3.82-.48h-.36c-1.09,0-2.25.12-3.46.36v.12c3.3,0,5.77,1.55,7.4,4.65.3.8.5,1.75.6,2.86,0,3.78-2.07,6.84-6.21,9.19-2.27.88-4.34,1.31-6.21,1.31-4.47,0-7.82-1.79-10.02-5.37-1.07-.28-1.87-.87-2.39-1.79l-.12-.6c.78-3.2,2.76-6.15,5.97-8.83l2.51-2.15v-.36c0-3.52-1.03-5.63-3.1-6.32l-.96-.12h-.72l-.12-.12c-2.35,0-3.74,1.51-4.18,4.53v.12c0,1.29.8,2.01,2.39,2.15.88-.38,1.31-.89,1.31-1.55l-.6-1.91c.86-.8,1.53-1.19,2.03-1.19h.72c1.11,0,1.67.88,1.67,2.62v.6c0,2.62-1.79,4.22-5.37,4.77h-.83c-2.69,0-4.28-1.83-4.77-5.49v-1.07c0-3.02,1.67-5.21,5.01-6.56.79-.32,1.59-.48,2.39-.48ZM2132.87,3156.39c.62,0,2.13,1.15,4.54,3.46.89.64,1.85,1,2.86,1.07,2.03,0,4.1-1.03,6.21-3.1.79-1.07,1.19-2.07,1.19-2.98v-.72c0-1.79-1.55-3.06-4.65-3.82l-2.5-.24c-2.94,0-4.42.36-4.42,1.07-1.73,1.75-2.8,3.5-3.22,5.25Z" fill="#2a3b55"/><path d="M2152.77,3121.67h.72c2.23,0,4.18,1.27,5.85,3.82,1.31-.72,2.43-1.07,3.34-1.07,2.82,0,5.09,1.35,6.8,4.06.32.89.48,1.61.48,2.15,0,1.45-.83,2.88-2.51,4.3l-2.74.95c-1.04,0-1.67-.75-1.91-2.27,0-.6.52-1.11,1.55-1.55,1.11-.85,1.67-1.65,1.67-2.39v-.12c-.32-1.19-.88-1.79-1.67-1.79h-.72c-.86,0-1.69.52-2.51,1.55.72,2.19,1.07,4.38,1.07,6.56v1.79c0,2.57-.36,5.07-1.07,7.52l-1.79.36c-.79,0-1.39-.52-1.79-1.55l.36-5.49v-2.03l-.12-3.82-.12-.12c-1.49.96-2.88,1.43-4.18,1.43-2.55,0-4.38-1.67-5.49-5.01l-.12-1.19c0-2.9,1.27-4.89,3.82-5.97l1.07-.12ZM2151.93,3128.95c.3,1.19.82,1.79,1.55,1.79.52,0,1.63-1.11,3.34-3.34-.26-1.27-.82-1.91-1.67-1.91h-.6c-1.11,0-1.99,1.15-2.62,3.46Z" fill="#2a3b55"/><path d="M2245.15,3119.68c-4.75,0-8.73,2.73-10.67,6.68-1.93-3.95-5.91-6.68-10.67-6.68-6.61,0-12.09,5.58-12.09,12.09,0,10.97,22.76,33.42,22.76,33.42,0,0,22.75-22.45,22.75-33.42,0-6.51-5.48-12.09-12.09-12.09Z" fill="#ff5a79"/></g></svg>